<mxfile host="app.diagrams.net" agent="Mozilla/5.0 (Windows NT 10.0; Win64; x64) AppleWebKit/537.36 (KHTML, like Gecko) Chrome/127.0.0.0 Safari/537.36 Edg/127.0.0.0" version="24.7.7">
  <diagram name="Page-1" id="YHDzCVtqjGQIKgTza5Zx">
    <mxGraphModel dx="1002" dy="575" grid="1" gridSize="10" guides="1" tooltips="1" connect="1" arrows="1" fold="1" page="1" pageScale="1" pageWidth="850" pageHeight="1100" math="0" shadow="0">
      <root>
        <mxCell id="0" />
        <mxCell id="1" parent="0" />
        <mxCell id="kY6sn5Ed872xW-k6jw4i-17" style="edgeStyle=orthogonalEdgeStyle;rounded=0;orthogonalLoop=1;jettySize=auto;html=1;entryX=0.5;entryY=1;entryDx=0;entryDy=0;strokeColor=#006658;fontColor=default;fillColor=#21C0A5;labelBackgroundColor=none;" parent="1" source="kY6sn5Ed872xW-k6jw4i-1" target="kY6sn5Ed872xW-k6jw4i-14" edge="1">
          <mxGeometry relative="1" as="geometry" />
        </mxCell>
        <mxCell id="kY6sn5Ed872xW-k6jw4i-1" value="&lt;b&gt;PSM&lt;/b&gt;" style="whiteSpace=wrap;html=1;aspect=fixed;rounded=1;labelBackgroundColor=none;fillColor=#21C0A5;strokeColor=#006658;fontColor=#5C5C5C;" parent="1" vertex="1">
          <mxGeometry x="220" y="110" width="100" height="100" as="geometry" />
        </mxCell>
        <mxCell id="kY6sn5Ed872xW-k6jw4i-8" style="edgeStyle=orthogonalEdgeStyle;rounded=1;orthogonalLoop=1;jettySize=auto;html=1;exitX=0;exitY=0.5;exitDx=0;exitDy=0;labelBackgroundColor=none;strokeColor=#006658;fontColor=default;entryX=0.5;entryY=1;entryDx=0;entryDy=0;" parent="1" source="kY6sn5Ed872xW-k6jw4i-2" target="kY6sn5Ed872xW-k6jw4i-1" edge="1">
          <mxGeometry relative="1" as="geometry">
            <mxPoint x="770" y="180" as="sourcePoint" />
            <mxPoint x="279" y="240" as="targetPoint" />
          </mxGeometry>
        </mxCell>
        <mxCell id="kY6sn5Ed872xW-k6jw4i-2" value="IDP" style="triangle;whiteSpace=wrap;html=1;rotation=-90;sketch=1;curveFitting=1;jiggle=2;rounded=1;labelBackgroundColor=none;fillColor=#21C0A5;strokeColor=#006658;fontColor=#5C5C5C;" parent="1" vertex="1">
          <mxGeometry x="760" y="150" width="60" height="80" as="geometry" />
        </mxCell>
        <mxCell id="kY6sn5Ed872xW-k6jw4i-5" style="edgeStyle=orthogonalEdgeStyle;rounded=1;orthogonalLoop=1;jettySize=auto;html=1;entryX=0.25;entryY=1;entryDx=0;entryDy=0;labelBackgroundColor=none;strokeColor=#006658;fontColor=default;" parent="1" target="kY6sn5Ed872xW-k6jw4i-1" edge="1">
          <mxGeometry relative="1" as="geometry">
            <mxPoint x="60" y="360" as="sourcePoint" />
          </mxGeometry>
        </mxCell>
        <mxCell id="kY6sn5Ed872xW-k6jw4i-6" style="edgeStyle=orthogonalEdgeStyle;rounded=1;orthogonalLoop=1;jettySize=auto;html=1;entryX=1;entryY=0.5;entryDx=0;entryDy=0;exitX=0.75;exitY=0;exitDx=0;exitDy=0;labelBackgroundColor=none;strokeColor=#006658;fontColor=default;" parent="1" source="kY6sn5Ed872xW-k6jw4i-1" target="kY6sn5Ed872xW-k6jw4i-2" edge="1">
          <mxGeometry relative="1" as="geometry">
            <mxPoint x="80" y="80" as="sourcePoint" />
          </mxGeometry>
        </mxCell>
        <object label="Actor" User="" id="kY6sn5Ed872xW-k6jw4i-12">
          <mxCell style="shape=umlActor;verticalLabelPosition=bottom;verticalAlign=top;html=1;outlineConnect=0;strokeColor=#006658;fontColor=#5C5C5C;fillColor=#21C0A5;labelBackgroundColor=none;" parent="1" vertex="1">
            <mxGeometry x="32.5" y="350" width="55" height="60" as="geometry" />
          </mxCell>
        </object>
        <mxCell id="kY6sn5Ed872xW-k6jw4i-14" value="&lt;b&gt;Vault&lt;/b&gt;" style="whiteSpace=wrap;html=1;aspect=fixed;strokeColor=#006658;fontColor=#5C5C5C;fillColor=#21C0A5;shape=ellipse;perimeter=ellipsePerimeter;labelBackgroundColor=none;" parent="1" vertex="1">
          <mxGeometry x="7.5" y="20" width="80" height="80" as="geometry" />
        </mxCell>
        <mxCell id="kY6sn5Ed872xW-k6jw4i-21" value="&lt;b&gt;&lt;font color=&quot;#3333ff&quot;&gt;1&lt;/font&gt;&lt;/b&gt;" style="text;html=1;align=center;verticalAlign=middle;whiteSpace=wrap;rounded=0;fontColor=#5C5C5C;" parent="1" vertex="1">
          <mxGeometry x="87.5" y="320" width="60" height="30" as="geometry" />
        </mxCell>
        <mxCell id="kY6sn5Ed872xW-k6jw4i-22" value="&lt;font color=&quot;#3333ff&quot;&gt;&lt;b&gt;2&lt;/b&gt;&lt;/font&gt;" style="text;html=1;align=center;verticalAlign=middle;whiteSpace=wrap;rounded=0;fontColor=#5C5C5C;" parent="1" vertex="1">
          <mxGeometry x="360" y="50" width="60" height="30" as="geometry" />
        </mxCell>
        <mxCell id="kY6sn5Ed872xW-k6jw4i-23" value="&lt;font color=&quot;#3333ff&quot;&gt;&lt;b&gt;3&lt;/b&gt;&lt;/font&gt;" style="text;html=1;align=center;verticalAlign=middle;whiteSpace=wrap;rounded=0;fontColor=#5C5C5C;" parent="1" vertex="1">
          <mxGeometry x="395" y="200" width="60" height="30" as="geometry" />
        </mxCell>
        <mxCell id="kY6sn5Ed872xW-k6jw4i-24" value="&lt;b&gt;&lt;font color=&quot;#3333ff&quot;&gt;4&lt;/font&gt;&lt;/b&gt;" style="text;html=1;align=center;verticalAlign=middle;whiteSpace=wrap;rounded=0;fontColor=#5C5C5C;" parent="1" vertex="1">
          <mxGeometry x="97.5" y="130" width="60" height="30" as="geometry" />
        </mxCell>
      </root>
    </mxGraphModel>
  </diagram>
</mxfile>
